<svg xmlns="http://www.w3.org/2000/svg" viewBox="0 0 32.545 10" height="10mm" width="123.005"><path d="M2.56 7.647c.334 0 .605.268.605.6 0 .33-.27.598-.605.598a.602.602 0 01-.605-.599c0-.33.27-.599.605-.599m27.278-.01c.334 0 .605.268.605.598 0 .331-.27.6-.605.6a.602.602 0 01-.605-.6c0-.33.271-.599.605-.599m-9.501-.023c.334 0 .605.268.605.6 0 .33-.27.598-.605.598a.602.602 0 01-.605-.599c0-.33.27-.599.605-.599m3.2-.058h3.252v.214h-3.251zM2.556 6.867c-.757 0-1.37.615-1.37 1.374 0 .76.613 1.374 1.37 1.374.756 0 1.37-.615 1.37-1.374 0-.759-.614-1.374-1.37-1.374m27.277-.011c-.756 0-1.37.615-1.37 1.374 0 .76.614 1.375 1.37 1.375.757 0 1.37-.616 1.37-1.375s-.613-1.374-1.37-1.374m-9.5-.023c-.757 0-1.37.615-1.37 1.374 0 .759.613 1.374 1.37 1.374.756 0 1.37-.615 1.37-1.374 0-.76-.614-1.374-1.37-1.374m7.598-.305h.628l-.232.193c-.29.29-.498.664-.583 1.083l-.003.015-.039-.01a.663.663 0 01-.424-.488l-.014-.132.014-.133c.062-.301.33-.528.653-.528m3.203-.021h.745c.368 0 .667.295.667.66 0 .319-.229.585-.532.646l-.058.006-.006-.037a2.139 2.139 0 00-.583-1.083zm-9.516-.002h.744c.368 0 .667.296.667.66a.662.662 0 01-.533.647l-.057.006-.006-.038a2.14 2.14 0 00-.583-1.083zM2.555 6.482c.97 0 1.755.787 1.755 1.76 0 .97-.786 1.758-1.755 1.758C1.585 10 .8 9.212.8 8.241c0-.972.785-1.76 1.755-1.76m27.277-.01c.97 0 1.756.787 1.756 1.76 0 .97-.786 1.759-1.756 1.759-.969 0-1.755-.788-1.755-1.76s.786-1.76 1.755-1.76m-9.5-.023c.969 0 1.755.788 1.755 1.76 0 .971-.786 1.759-1.755 1.759-.97 0-1.756-.788-1.756-1.76 0-.97.786-1.759 1.756-1.759m6.788-4.552h5.425v4.547H27.12zM1.507 1.822l-.88 2.612H3.95V1.822zm-.184-.503h3.692c.14 0 .254.112.254.252l-.004.017V6.54h1.289l-.008.007h10.797v-.002h.91l.049-.008h.628l-.232.192c-.145.145-.27.311-.369.493l-.211.582v.054H4.662l-.007-.042A2.14 2.14 0 002.56 6.104a2.14 2.14 0 00-2.095 1.71l-.005.037-.057-.005A.501.501 0 010 7.356V4.434h.016l.009-.067.955-2.832a.293.293 0 01.149-.17l.093-.026h.002l.008-.002.006-.002h.002zM6.868 0h16.294a1.07 1.07 0 011.075 1.065v4.26a1.07 1.07 0 01-1.075 1.065H6.868a1.07 1.07 0 01-1.076-1.065v-4.26A1.07 1.07 0 016.868 0" fill="#100f0d" fill-rule="evenodd"/></svg>