<svg xmlns="http://www.w3.org/2000/svg" viewBox="0 0 35.229 10" height="10mm" width="133.15"><path d="M31.533 7.673c.332 0 .601.266.601.593 0 .327-.27.592-.601.592a.597.597 0 01-.602-.592c0-.327.27-.593.602-.593M7.79 7.616c.333 0 .602.266.602.593 0 .327-.27.592-.602.592a.597.597 0 01-.6-.592c0-.327.268-.593.6-.593m-5.245 0c.332 0 .602.266.602.593 0 .327-.27.592-.602.592a.597.597 0 01-.602-.592c0-.327.27-.593.602-.593m28.982-.714a1.36 1.36 0 00-1.362 1.359c0 .75.61 1.358 1.362 1.358a1.36 1.36 0 001.362-1.358c0-.751-.61-1.36-1.362-1.36M7.783 6.846c-.753 0-1.363.608-1.363 1.359 0 .75.61 1.359 1.363 1.359s1.364-.61 1.364-1.36c0-.75-.61-1.358-1.364-1.358m-5.243 0a1.36 1.36 0 00-1.362 1.359c0 .75.61 1.359 1.362 1.359a1.36 1.36 0 001.362-1.36c0-.75-.61-1.358-1.362-1.358m30.263-.32h.74c.366 0 .663.292.663.653a.656.656 0 01-.53.64l-.057.005-.005-.037a2.11 2.11 0 00-.58-1.071zm-1.276-.004c.964 0 1.745.779 1.745 1.74 0 .96-.781 1.739-1.745 1.739a1.742 1.742 0 01-1.745-1.74c0-.96.782-1.74 1.745-1.74m-22.465 0h.913c.277 0 .502.222.502.495v.313a.499.499 0 01-.502.495H9.88l-.007-.041a2.114 2.114 0 00-.58-1.071zm20.484-.056h.74l-.231.19a2.117 2.117 0 00-.58 1.07l-.006.038-.057-.006a.656.656 0 01-.529-.64c0-.36.297-.652.663-.652m-21.763 0c.965 0 1.747.779 1.747 1.74 0 .96-.782 1.739-1.747 1.739a1.743 1.743 0 01-1.747-1.74c0-.96.783-1.74 1.747-1.74m-5.243 0c.963 0 1.745.78 1.745 1.74 0 .961-.782 1.74-1.745 1.74a1.742 1.742 0 01-1.745-1.74c0-.96.78-1.74 1.745-1.74M1.498 1.858L.623 4.439h3.304V1.857zm-.183-.498h3.67a.25.25 0 01.253.249l-.003.017v4.896h1.28l-.231.19a2.117 2.117 0 00-.58 1.07l-.006.042H4.634l-.006-.041A2.126 2.126 0 002.545 6.09 2.125 2.125 0 00.462 7.782l-.005.037L.4 7.813A.497.497 0 010 7.328V4.44h.016l.008-.066.95-2.8a.292.292 0 01.148-.168l.093-.026h.002l.007-.002.006-.002h.002zM7.38 0h26.125c.953 0 1.725.471 1.725 1.053v4.212c0 .581-.772 1.053-1.725 1.053H7.38c-.953 0-1.725-.472-1.725-1.053V1.053C5.654.471 6.426 0 7.379 0" fill="#100f0d" fill-rule="evenodd"/></svg>