<svg xmlns="http://www.w3.org/2000/svg" viewBox="0 0 34.845 10" height="10mm" width="131.698"><path d="M30.268 7.696c.328 0 .595.263.595.587a.591.591 0 01-.595.586.591.591 0 01-.596-.586c0-.324.267-.587.596-.587m-5.185 0c.328 0 .595.263.595.587a.591.591 0 01-.595.586.591.591 0 01-.595-.586c0-.324.266-.587.595-.587m-17.377-.05c.329 0 .595.262.595.586a.591.591 0 01-.595.587.591.591 0 01-.595-.587c0-.324.266-.587.595-.587m-5.188 0c.328 0 .595.263.595.587a.591.591 0 01-.595.587.591.591 0 01-.595-.587c0-.324.266-.587.595-.587m27.744-.713a1.347 1.347 0 10-.001 2.693 1.347 1.347 0 00.001-2.693m-5.185 0a1.347 1.347 0 100 2.693 1.347 1.347 0 000-2.693M7.7 6.882c-.745 0-1.349.601-1.349 1.345 0 .743.604 1.345 1.349 1.345s1.349-.602 1.349-1.345c0-.744-.604-1.346-1.35-1.346m-5.186 0a1.346 1.346 0 10-.001 2.693 1.346 1.346 0 00.001-2.693m27.75-.326c.953 0 1.726.771 1.726 1.722 0 .952-.773 1.723-1.726 1.723a1.724 1.724 0 01-1.726-1.723c0-.951.773-1.722 1.726-1.722m-5.185 0c.954 0 1.726.771 1.726 1.722 0 .952-.772 1.723-1.726 1.723a1.724 1.724 0 01-1.725-1.723c0-.951.772-1.722 1.725-1.722m6.362-.05h.732c.362 0 .656.29.656.648a.65.65 0 01-.524.635l-.057.005-.005-.036a2.1 2.1 0 00-.573-1.064zM8.961 6.503h.903c.274 0 .496.235.496.526v.332c0 .29-.222.525-.496.525H9.77l-.006-.043a2.293 2.293 0 00-.574-1.138zm-1.262 0c.954 0 1.728.772 1.728 1.723 0 .951-.774 1.723-1.728 1.723A1.726 1.726 0 015.97 8.227c0-.951.774-1.723 1.728-1.723m-5.187 0c.954 0 1.726.772 1.726 1.723 0 .951-.772 1.723-1.726 1.723A1.724 1.724 0 01.786 8.227c0-.951.773-1.723 1.726-1.723m23.816-.003h2.669l-.23.188c-.285.284-.488.65-.572 1.06l-.007.044h-1.051l-.007-.044a2.09 2.09 0 00-.573-1.06zm-3.233-.02h.732l-.229.189c-.285.284-.489.65-.573 1.06l-.005.037-.057-.006a.648.648 0 01-.524-.633c0-.357.294-.646.656-.646M1.482 1.942L.616 4.5h3.269V1.942zm-.181-.493h3.63c.139 0 .25.11.25.247l-.003.017v4.848h1.267l-.23.188a2.09 2.09 0 00-.572 1.06l-.007.04H4.584l-.006-.04a2.103 2.103 0 00-4.12 0l-.006.037-.055-.006A.492.492 0 010 7.36V4.5h.016l.008-.066.94-2.774a.289.289 0 01.146-.165l.092-.026h.001l.008-.002.006-.002h.002zM7.298 0H33.14c.941 0 1.705.467 1.705 1.043v4.17c0 .576-.764 1.043-1.705 1.043H7.298c-.942 0-1.705-.467-1.705-1.043v-4.17C5.593.467 6.356 0 7.298 0" fill="#100f0d" fill-rule="evenodd"/></svg>