<svg xmlns="http://www.w3.org/2000/svg" viewBox="0 0 45.391 10" height="10mm" width="171.556"><path d="M2.542 7.668c.332 0 .6.266.6.593 0 .328-.268.594-.6.594a.598.598 0 01-.6-.594c0-.327.268-.593.6-.593m39.883-.032c.332 0 .601.265.601.593 0 .328-.269.594-.6.594a.598.598 0 01-.601-.594c0-.328.269-.593.6-.593m-5.235 0c.331 0 .6.265.6.593 0 .328-.269.594-.6.594a.597.597 0 01-.601-.594c0-.328.269-.593.6-.593m-7.177 0c.332 0 .601.265.601.593a.597.597 0 01-.6.594.598.598 0 01-.602-.594c0-.328.27-.593.601-.593m-9.817-.002c.331 0 .6.266.6.594a.597.597 0 01-.6.594.597.597 0 01-.601-.594c0-.328.269-.594.6-.594m3.411-.158h3.229v.213h-3.229zM2.537 6.894a1.361 1.361 0 10.002 2.727 1.361 1.361 0 00-.002-2.727M42.42 6.86a1.361 1.361 0 10.002 2.723 1.361 1.361 0 00-.002-2.723m-5.236 0a1.362 1.362 0 000 2.725 1.361 1.361 0 000-2.725m-7.179 0a1.363 1.363 0 100 2.726 1.363 1.363 0 000-2.726M20.19 6.86a1.361 1.361 0 10.002 2.723 1.361 1.361 0 00-.002-2.723m23.507-.323h.74c.365 0 .662.293.662.655 0 .316-.228.58-.53.64l-.057.006-.005-.036a2.122 2.122 0 00-.579-1.074zm-5.236 0h2.695l-.231.19a2.122 2.122 0 00-.58 1.075l-.006.044h-1.061l-.007-.044a2.122 2.122 0 00-.579-1.074zm-7.065 0h2.56v.004h1.841l-.231.188a2.09 2.09 0 00-.579 1.062l-.007.044h-1.061l-1.706.003-.007-.04a2.108 2.108 0 00-.579-1.07zm-3.35 0h.739l-.232.19a2.122 2.122 0 00-.578 1.075l-.006.036-.057-.005a.656.656 0 01-.529-.641c0-.362.297-.655.663-.655m-6.58-.002h.74c.365 0 .661.293.661.655 0 .316-.226.58-.528.64l-.057.007-.006-.038a2.112 2.112 0 00-.58-1.073zM2.537 6.512A1.743 1.743 0 112.536 10a1.743 1.743 0 010-3.487M42.42 6.48a1.743 1.743 0 11-.001 3.487 1.743 1.743 0 01.001-3.487m-5.236 0a1.743 1.743 0 110 3.487 1.743 1.743 0 010-3.487m-7.179 0a1.744 1.744 0 11.001 3.488 1.744 1.744 0 010-3.488m-9.817-.002a1.743 1.743 0 11-.001 3.487 1.743 1.743 0 010-3.487M1.498 1.894L.622 4.483h3.3v-2.59zm-.184-.5H4.98c.14 0 .253.112.253.25l-.003.018v4.907h1.279l-.008.007h10.722v-.002h.903l.049-.008h.623l-.23.19c-.145.144-.268.31-.366.49l-.21.576v.053H4.629l-.006-.042a2.125 2.125 0 00-4.161 0l-.006.037L.4 7.865a.498.498 0 01-.4-.486V4.483h.016l.008-.067.949-2.807a.29.29 0 01.148-.168l.093-.026.001-.001.008-.001.006-.002h.002zM6.82.087H23c.59 0 1.068.473 1.068 1.056v4.223c0 .583-.478 1.055-1.068 1.055H6.82c-.59 0-1.068-.472-1.068-1.055V1.143C5.752.56 6.229.087 6.82.087M28.143 0h16.18c.59 0 1.068.472 1.068 1.055v4.223c0 .583-.478 1.056-1.068 1.056h-16.18c-.59 0-1.068-.473-1.068-1.056V1.055c0-.583.478-1.055 1.068-1.055" fill="#100f0d" fill-rule="evenodd"/></svg>