<svg xmlns="http://www.w3.org/2000/svg" viewBox="0 0 24.207 10" height="10mm" width="91.49"><path d="M2.557 7.647c.334 0 .604.268.604.6 0 .33-.27.598-.604.598a.602.602 0 01-.604-.599c0-.33.27-.599.604-.599m17.754-.034c.334 0 .604.268.604.6 0 .33-.27.598-.604.598a.602.602 0 01-.604-.599c0-.33.27-.599.604-.599m-5.266 0c.334 0 .605.268.605.6 0 .33-.271.598-.605.598a.602.602 0 01-.604-.599c0-.33.27-.599.604-.599M2.552 6.866c-.756 0-1.369.616-1.369 1.375s.613 1.374 1.369 1.374a1.37 1.37 0 001.367-1.374c0-.76-.612-1.375-1.367-1.375m17.754-.034c-.756 0-1.369.616-1.369 1.375s.613 1.374 1.369 1.374c.755 0 1.368-.615 1.368-1.374 0-.76-.613-1.375-1.368-1.375m-5.266 0c-.756 0-1.369.616-1.369 1.375s.613 1.374 1.369 1.374c.755 0 1.368-.615 1.368-1.374 0-.76-.613-1.375-1.368-1.375m6.55-.327h.743c.367 0 .666.295.666.66a.661.661 0 01-.532.647l-.058.006-.006-.038a2.139 2.139 0 00-.582-1.083zm-5.267 0h2.71l-.232.192c-.29.29-.497.665-.582 1.083l-.007.045h-1.068l-.007-.045a2.139 2.139 0 00-.582-1.083zM2.552 6.48c.967 0 1.752.788 1.752 1.76C4.304 9.212 3.52 10 2.552 10A1.756 1.756 0 01.798 8.24c0-.97.785-1.759 1.754-1.759m17.754-.034c.968 0 1.752.788 1.752 1.76 0 .971-.784 1.759-1.752 1.759a1.756 1.756 0 01-1.753-1.76c0-.971.784-1.759 1.753-1.759m-5.266 0c.968 0 1.752.788 1.752 1.76 0 .971-.784 1.759-1.752 1.759a1.756 1.756 0 01-1.753-1.76c0-.971.784-1.759 1.753-1.759M1.505 1.822l-.88 2.613h3.32V1.822zm-.184-.503h3.687c.14 0 .254.112.254.252l-.003.017V6.54h.008v-.03h7.849l.024-.003h.627l-.232.192a2.15 2.15 0 00-.368.493l-.208.571v.095H5.267v-.001h-.611l-.007-.042a2.139 2.139 0 00-2.092-1.71 2.139 2.139 0 00-2.093 1.71l-.005.037-.056-.005A.501.501 0 010 7.356V4.435h.016l.009-.068.953-2.832a.294.294 0 01.149-.17l.094-.026h.001l.008-.002.006-.002h.002zM6.86 0h16.274a1.07 1.07 0 011.074 1.065v4.26a1.07 1.07 0 01-1.074 1.065H6.859a1.07 1.07 0 01-1.074-1.065v-4.26A1.07 1.07 0 016.859 0" fill="#100f0d" fill-rule="evenodd"/></svg>