<svg xmlns="http://www.w3.org/2000/svg" viewBox="0 0 34.905 10" height="10mm" width="131.926"><defs><clipPath clipPathUnits="userSpaceOnUse" id="a"><path d="M306.728 114.205H375.9v23.319h-69.172z"/></clipPath></defs><g clip-path="url(#a)" transform="matrix(.50561 0 0 -.43225 -155.12 59.365)"><path d="M366.765 119.502c.651 0 1.179-.609 1.179-1.359 0-.751-.528-1.36-1.179-1.36s-1.179.609-1.179 1.36c0 .75.528 1.359 1.179 1.359m-10.272 0c.651 0 1.179-.609 1.179-1.359 0-.751-.528-1.36-1.179-1.36s-1.179.609-1.179 1.36c0 .75.528 1.359 1.179 1.359m-34.427.117c.651 0 1.179-.608 1.179-1.359s-.528-1.359-1.179-1.359-1.179.608-1.179 1.359.528 1.359 1.179 1.359m-10.279 0c.651 0 1.179-.608 1.179-1.359s-.528-1.359-1.179-1.359-1.179.608-1.179 1.359.528 1.359 1.179 1.359m34.427.052c.651 0 1.178-.608 1.178-1.359s-.527-1.359-1.178-1.359c-.651 0-1.179.608-1.179 1.359s.528 1.359 1.179 1.359m20.54 1.603c-1.474 0-2.669-1.397-2.669-3.119 0-1.723 1.195-3.119 2.669-3.119s2.669 1.396 2.669 3.119c0 1.722-1.195 3.119-2.669 3.119m-10.272 0c-1.474 0-2.669-1.397-2.669-3.119 0-1.723 1.195-3.119 2.669-3.119s2.669 1.396 2.669 3.119c0 1.722-1.195 3.119-2.669 3.119m-34.43.117c-1.476 0-2.672-1.396-2.672-3.119 0-1.722 1.196-3.119 2.672-3.119 1.476 0 2.673 1.397 2.673 3.119 0 1.723-1.197 3.119-2.673 3.119m-10.276 0c-1.474 0-2.669-1.396-2.669-3.119 0-1.722 1.195-3.119 2.669-3.119s2.669 1.397 2.669 3.119c0 1.723-1.195 3.119-2.669 3.119m34.427.052c-1.474 0-2.669-1.396-2.669-3.119 0-1.722 1.195-3.119 2.669-3.119s2.669 1.397 2.669 3.119c0 1.723-1.195 3.119-2.669 3.119m20.551.704c1.889 0 3.42-1.787 3.42-3.992s-1.531-3.993-3.42-3.993c-1.888 0-3.419 1.788-3.419 3.993s1.531 3.992 3.419 3.992m-10.272 0c1.889 0 3.42-1.787 3.42-3.992s-1.531-3.993-3.42-3.993c-1.888 0-3.419 1.788-3.419 3.993s1.531 3.992 3.419 3.992m-14.345.036h1.45l-.453-.436a5.142 5.142 0 01-1.135-2.458l-.011-.085-.113.013c-.592.14-1.037.744-1.037 1.468 0 .827.582 1.498 1.299 1.498m26.949.081h1.45c.717 0 1.299-.672 1.299-1.502 0-.726-.445-1.332-1.037-1.472l-.113-.013-.011.085a5.162 5.162 0 01-1.135 2.465zm-44.533.001h1.788c.544 0 .984-.545.984-1.218v-.771c0-.672-.44-1.217-.984-1.217h-.185l-.013.101c-.166 1.018-.57 1.929-1.136 2.637zm-2.501 0c1.89 0 3.423-1.788 3.423-3.993s-1.533-3.992-3.423-3.992c-1.89 0-3.423 1.787-3.423 3.992s1.533 3.993 3.423 3.993m-10.276 0c1.889 0 3.42-1.788 3.42-3.993s-1.531-3.992-3.42-3.992c-1.888 0-3.419 1.787-3.419 3.992s1.531 3.993 3.419 3.993m47.185.008h5.286l-.453-.436a5.143 5.143 0 01-1.136-2.458l-.013-.102h-2.083l-.013.102a5.134 5.134 0 01-1.136 2.458zm-10.124.044h5.286l-.453-.436a5.152 5.152 0 01-1.136-2.458l-.013-.103h-2.082l-.014.103a5.142 5.142 0 01-1.135 2.458zm-2.634 0c1.888 0 3.419-1.788 3.419-3.993s-1.531-3.992-3.419-3.992c-1.888 0-3.419 1.787-3.419 3.992s1.531 3.993 3.419 3.993m-36.467 10.521l-1.716-5.927h6.475v5.927zm-.36 1.143h7.193c.274 0 .496-.256.496-.571l-.007-.041v-11.235h2.509l-.453-.436a5.134 5.134 0 01-1.136-2.458l-.013-.094h-2.084l-.013.094c-.388 2.215-2.068 3.882-4.081 3.882-2.013 0-3.693-1.667-4.082-3.882l-.011-.084-.109.013c-.448.106-.786.563-.786 1.112v6.63h.032l.016.152 1.861 6.428a.646.646 0 00.29.384l.183.059.002.002.015.004.013.004.003-.001zm11.882 3.359h51.197c1.866 0 3.38-1.082 3.38-2.417v-9.667c0-1.335-1.514-2.417-3.38-2.417h-51.197c-1.866 0-3.379 1.082-3.379 2.417v9.667c0 1.335 1.513 2.417 3.379 2.417" fill="#100f0d" fill-rule="evenodd"/></g></svg>