<svg xmlns="http://www.w3.org/2000/svg" viewBox="0 0 24.198 10" height="10mm" width="91.456"><path d="M20.392 7.66c.335 0 .606.267.606.596 0 .329-.271.596-.606.596a.601.601 0 01-.607-.596c0-.33.272-.596.607-.596m-5.287 0c.335 0 .606.267.606.596 0 .329-.271.596-.606.596a.601.601 0 01-.607-.596c0-.33.272-.596.607-.596m-7.247 0c.335 0 .606.267.606.596 0 .329-.271.596-.606.596a.601.601 0 01-.607-.596c0-.33.271-.596.607-.596m-5.291 0c.335 0 .607.267.607.596 0 .329-.272.596-.607.596a.601.601 0 01-.607-.596c0-.33.272-.596.607-.596m17.82-.776a1.37 1.37 0 00-1.374 1.366 1.37 1.37 0 001.373 1.367A1.37 1.37 0 0021.76 8.25a1.37 1.37 0 00-1.374-1.366m-5.287 0a1.37 1.37 0 00-1.373 1.366 1.37 1.37 0 001.373 1.367 1.37 1.37 0 001.374-1.367 1.37 1.37 0 00-1.374-1.366m-7.249 0c-.76 0-1.375.612-1.375 1.366 0 .755.616 1.367 1.375 1.367.76 0 1.376-.612 1.376-1.367 0-.754-.616-1.366-1.376-1.366m-5.288 0A1.37 1.37 0 001.188 8.25a1.37 1.37 0 001.374 1.367A1.37 1.37 0 003.935 8.25a1.37 1.37 0 00-1.373-1.366m19.113-.326h.746c.37 0 .669.294.669.657a.66.66 0 01-.534.643l-.058.006-.006-.037a2.12 2.12 0 00-.584-1.078zm-5.287 0h2.72l-.232.191c-.291.29-.5.661-.585 1.078l-.007.044h-1.071l-.007-.044a2.12 2.12 0 00-.585-1.078zm-7.074 0h2.585v.004h1.858l-.233.202c-.29.306-.499.7-.584 1.14l-.007.046H11.86v-.003h-1.593l-.034.007h-.096l-.006-.043a2.307 2.307 0 00-.585-1.149zm11.072-.057c.972 0 1.76.783 1.76 1.75 0 .966-.788 1.749-1.76 1.749s-1.76-.783-1.76-1.75c0-.966.788-1.749 1.76-1.749m-5.287 0c.972 0 1.76.783 1.76 1.75 0 .966-.788 1.749-1.76 1.749s-1.76-.783-1.76-1.75c0-.966.788-1.749 1.76-1.749m-7.249 0c.973 0 1.762.783 1.762 1.75C9.612 9.216 8.823 10 7.85 10A1.756 1.756 0 016.09 8.25c0-.966.788-1.749 1.761-1.749m-5.288 0c.971 0 1.76.783 1.76 1.75 0 .966-.789 1.749-1.76 1.749-.972 0-1.76-.783-1.76-1.75 0-.966.788-1.749 1.76-1.749m-1.05-4.634L.627 4.465h3.333V1.867zm-.186-.5h3.702c.141 0 .255.112.255.25l-.003.018v4.923h1.292l-.234.191c-.291.29-.499.661-.585 1.078l-.006.04H4.674l-.006-.04a2.142 2.142 0 00-2.101-1.702c-1.036 0-1.9.73-2.1 1.702l-.006.036-.057-.005A.5.5 0 010 7.37V4.465h.016l.009-.067.957-2.817a.293.293 0 01.15-.168l.094-.026h.001l.008-.002.006-.002h.002zM6.781 0h16.338c.596 0 1.079.474 1.079 1.06v4.235c0 .585-.483 1.06-1.08 1.06H6.782a1.069 1.069 0 01-1.079-1.06V1.06C5.702.474 6.185 0 6.781 0" fill="#100f0d" fill-rule="evenodd"/></svg>