<svg xmlns="http://www.w3.org/2000/svg" viewBox="0 0 24.201 10" height="10mm" width="91.468"><path d="M2.556 7.647c.334 0 .604.269.604.6 0 .33-.27.598-.604.598a.601.601 0 01-.604-.599c0-.33.27-.599.604-.599m17.75-.034c.334 0 .604.268.604.6 0 .33-.27.598-.604.598a.601.601 0 01-.604-.599c0-.33.27-.599.604-.599M2.551 6.867c-.756 0-1.368.615-1.368 1.374 0 .76.612 1.374 1.368 1.374a1.37 1.37 0 001.368-1.374c0-.759-.613-1.374-1.368-1.374m17.75-.034a1.37 1.37 0 00-1.368 1.374c0 .759.612 1.374 1.368 1.374.755 0 1.368-.615 1.368-1.374A1.37 1.37 0 0020.3 6.833m1.283-.328h.743c.368 0 .666.296.666.66a.661.661 0 01-.532.647l-.057.006-.006-.038a2.14 2.14 0 00-.582-1.083zM2.551 6.482c.968 0 1.752.787 1.752 1.76 0 .97-.784 1.758-1.752 1.758A1.756 1.756 0 01.798 8.241c0-.972.785-1.76 1.753-1.76m17.75-.034c.968 0 1.752.788 1.752 1.76 0 .971-.784 1.759-1.752 1.759a1.756 1.756 0 01-1.753-1.76c0-.97.785-1.759 1.753-1.759M1.505 1.822l-.88 2.612h3.32V1.822zm-.184-.503h3.686c.14 0 .254.112.254.252l-.004.017V6.54h1.287l-.008.007h10.781v-.002h.908l.05-.008h.626l-.232.192a2.16 2.16 0 00-.367.493l-.212.582v.054H4.655l-.007-.042a2.138 2.138 0 00-2.092-1.711 2.138 2.138 0 00-2.092 1.71l-.005.037-.056-.005A.501.501 0 010 7.356V4.434h.016l.009-.067.953-2.832a.294.294 0 01.149-.17l.094-.026h.001l.007-.002.007-.002h.001zM6.858 0h16.269a1.07 1.07 0 011.074 1.065v4.26a1.07 1.07 0 01-1.074 1.065H6.857a1.07 1.07 0 01-1.074-1.065v-4.26A1.07 1.07 0 016.858 0" fill="#100f0d" fill-rule="evenodd"/></svg>