<svg xmlns="http://www.w3.org/2000/svg" viewBox="0 0 45.175 10" height="10mm" width="170.739"><path d="M42.244 7.68c.33 0 .598.264.598.59a.595.595 0 01-.598.591.595.595 0 01-.598-.59c0-.327.268-.591.598-.591m-12.354 0c.33 0 .598.264.598.59a.594.594 0 01-.598.591.595.595 0 01-.598-.59c0-.327.268-.591.598-.591m-9.792-.084c.33 0 .598.264.598.59 0 .327-.267.591-.598.591a.594.594 0 01-.598-.59c0-.327.268-.591.598-.591m-12.354 0c.33 0 .598.264.598.59 0 .327-.267.591-.598.591a.594.594 0 01-.598-.59c0-.327.268-.591.598-.591m-5.214 0c.33 0 .598.264.598.59 0 .327-.268.591-.598.591a.594.594 0 01-.598-.59c0-.327.268-.591.598-.591m20.97-.128h3.212v.212H23.5zm18.739-.558a1.354 1.354 0 100 2.709 1.354 1.354 0 000-2.709m-12.356 0a1.355 1.355 0 100 2.71 1.355 1.355 0 000-2.71m-9.79-.084a1.354 1.354 0 10.001 2.709 1.354 1.354 0 00-.001-2.709m-12.356 0a1.356 1.356 0 100 2.711 1.356 1.356 0 000-2.711m-5.212 0a1.354 1.354 0 10.001 2.709 1.354 1.354 0 00-.001-2.709m40.984-.239h.736c.363 0 .659.292.659.651a.653.653 0 01-.527.638l-.056.005-.006-.036a2.108 2.108 0 00-.576-1.068zm-12.355 0h.907l.084.017V6.59h8.835l-.259.186a2.013 2.013 0 00-.647 1.051l-.009.054h-7.922v-.01l-.082.016h-.094l-.006-.041a2.105 2.105 0 00-.577-1.068zm-3.278 0h.736l-.23.19a2.108 2.108 0 00-.577 1.068l-.005.036-.057-.005a.653.653 0 01-.526-.638c0-.36.295-.65.659-.65m14.363-.058a1.735 1.735 0 110 3.47 1.735 1.735 0 010-3.47m-12.356 0a1.736 1.736 0 110 3.472 1.736 1.736 0 010-3.472m-8.52-.027h.735c.365 0 .66.291.66.651a.653.653 0 01-.527.638l-.057.006-.005-.037a2.11 2.11 0 00-.577-1.068zm-12.355 0h.907L10 6.52v-.015h8.834l-.259.187a2.013 2.013 0 00-.647 1.05l-.009.053H9.997v-.01l-.082.017h-.094l-.006-.041a2.107 2.107 0 00-.577-1.068zm11.085-.056a1.735 1.735 0 110 3.469 1.735 1.735 0 010-3.47m-12.356 0a1.735 1.735 0 11-1.736 1.735c0-.958.777-1.734 1.736-1.734m-5.212 0a1.735 1.735 0 110 3.469 1.735 1.735 0 010-3.47M1.49 1.853L.619 4.428h3.284V1.852zm-.183-.497h3.65a.25.25 0 01.25.249l-.003.017v4.882h1.273l-.23.19A2.106 2.106 0 005.67 7.76l-.007.04H4.607l-.007-.04a2.113 2.113 0 00-4.14 0l-.006.036-.056-.005A.495.495 0 010 7.309V4.428h.016l.008-.066.944-2.794a.292.292 0 01.147-.167l.093-.025.001-.001.008-.001.006-.002h.002zM28.01 0H44.11c.588 0 1.064.47 1.064 1.05v4.2c0 .58-.476 1.051-1.064 1.051H28.01c-.588 0-1.064-.47-1.064-1.05v-4.2C26.945.47 27.421 0 28.01 0M6.683 0h16.103c.587 0 1.063.47 1.063 1.05v4.2c0 .58-.476 1.051-1.063 1.051H6.683c-.587 0-1.063-.47-1.063-1.05v-4.2C5.62.47 6.096 0 6.683 0" fill="#100f0d" fill-rule="evenodd"/></svg>