<svg xmlns="http://www.w3.org/2000/svg" viewBox="0 0 45.456 10" height="10mm" width="171.8"><path d="M20.223 7.672c.332 0 .602.266.602.593 0 .328-.27.593-.602.593a.597.597 0 01-.601-.593c0-.327.27-.593.601-.593m-12.43 0c.332 0 .602.266.602.593 0 .328-.27.593-.602.593a.597.597 0 01-.602-.593c0-.327.27-.593.602-.593m-5.247 0c.332 0 .601.266.601.593 0 .328-.269.593-.6.593a.597.597 0 01-.603-.593c0-.327.27-.593.602-.593m39.94-.053c.332 0 .601.266.601.593 0 .327-.27.593-.601.593a.597.597 0 01-.602-.593c0-.327.269-.593.602-.593m-5.244 0c.333 0 .602.266.602.593 0 .327-.27.593-.602.593a.597.597 0 01-.601-.593c0-.327.269-.593.601-.593m-7.187 0c.332 0 .602.266.602.593 0 .327-.27.593-.602.593a.597.597 0 01-.601-.593c0-.327.269-.593.6-.593M23.64 7.46h3.233v.212H23.64zm-3.421-.56a1.361 1.361 0 100 2.72 1.361 1.361 0 100-2.72m-12.433 0c-.753 0-1.364.609-1.364 1.36 0 .75.611 1.36 1.364 1.36.754 0 1.364-.61 1.364-1.36 0-.751-.61-1.36-1.364-1.36m-5.244 0a1.361 1.361 0 100 2.72 1.36 1.36 0 001.362-1.36c0-.751-.61-1.36-1.362-1.36m39.939-.053a1.36 1.36 0 100 2.72 1.36 1.36 0 001.362-1.36c0-.751-.61-1.36-1.362-1.36m-5.243 0a1.36 1.36 0 00-1.363 1.36c0 .75.61 1.36 1.363 1.36a1.36 1.36 0 001.362-1.36c0-.751-.61-1.36-1.362-1.36m-7.19 0c-.753 0-1.363.609-1.363 1.36 0 .75.61 1.36 1.364 1.36.753 0 1.364-.61 1.364-1.36 0-.751-.61-1.36-1.364-1.36m-8.552-.27h.74c.366 0 .663.292.663.653a.656.656 0 01-.53.64l-.057.005-.005-.037a2.108 2.108 0 00-.58-1.071zm-12.432 0h.913l.085.016v-.015h8.889l-.26.187a2.016 2.016 0 00-.651 1.054l-.01.054h-7.97v-.01l-.083.016h-.094l-.007-.041a2.11 2.11 0 00-.58-1.071zm34.694-.053h.74c.366 0 .664.292.664.652a.656.656 0 01-.53.64l-.058.006-.005-.037a2.114 2.114 0 00-.58-1.071zm-5.243 0h2.698l-.231.19a2.114 2.114 0 00-.58 1.071l-.007.045h-1.063l-.006-.045a2.114 2.114 0 00-.58-1.071zm-7.075 0h2.564v.003h1.842l-.23.188c-.29.284-.495.65-.58 1.06l-.007.043h-1.063l-1.708.004-.006-.04a2.106 2.106 0 00-.58-1.069zm-3.356 0h.74l-.23.19a2.114 2.114 0 00-.58 1.071l-.006.037-.057-.006a.656.656 0 01-.53-.64c0-.36.297-.652.663-.652m-7.866-.005c.964 0 1.745.78 1.745 1.74 0 .962-.781 1.741-1.745 1.741-.964 0-1.745-.78-1.745-1.74 0-.961.78-1.74 1.745-1.74m-12.433 0c.966 0 1.748.779 1.748 1.74 0 .96-.782 1.74-1.748 1.74-.964 0-1.746-.78-1.746-1.74 0-.961.782-1.74 1.746-1.74m-5.244 0c.963 0 1.745.779 1.745 1.74 0 .96-.782 1.74-1.745 1.74-.964 0-1.746-.78-1.746-1.74 0-.961.782-1.74 1.746-1.74m39.939-.053c.964 0 1.745.778 1.745 1.74 0 .961-.781 1.74-1.745 1.74a1.743 1.743 0 01-1.745-1.74c0-.962.781-1.74 1.745-1.74m-5.243 0c.964 0 1.745.778 1.745 1.74 0 .961-.781 1.74-1.745 1.74a1.743 1.743 0 01-1.745-1.74c0-.962.781-1.74 1.745-1.74m-7.19 0c.965 0 1.748.778 1.748 1.74 0 .961-.783 1.74-1.747 1.74a1.744 1.744 0 01-1.748-1.74c0-.962.783-1.74 1.748-1.74M1.499 1.91L.623 4.494h3.305V1.911zm-.183-.499h3.67c.14 0 .254.112.254.25l-.004.017v4.897h1.282l-.232.19a2.11 2.11 0 00-.58 1.072l-.007.04H4.636l-.007-.04a2.125 2.125 0 00-2.083-1.692A2.126 2.126 0 00.462 7.838l-.005.037-.055-.006A.497.497 0 010 7.384v-2.89h.016l.009-.066.95-2.802a.292.292 0 01.147-.168l.093-.025h.002l.008-.003.006-.001h.002zM6.725.053h16.203c.59 0 1.07.472 1.07 1.053V5.32c0 .582-.48 1.053-1.07 1.053H6.725c-.59 0-1.07-.471-1.07-1.053V1.106c0-.581.48-1.053 1.07-1.053M28.183 0h16.203c.59 0 1.07.471 1.07 1.053v4.214c0 .582-.48 1.054-1.07 1.054H28.183c-.59 0-1.07-.472-1.07-1.054V1.053c0-.582.48-1.053 1.07-1.053" fill="#100f0d" fill-rule="evenodd"/></svg>