<svg xmlns="http://www.w3.org/2000/svg" viewBox="0 0 35.281 10" height="10mm" width="133.345"><path d="M7.8 7.664c.332 0 .602.266.602.595 0 .328-.27.594-.603.594a.599.599 0 01-.602-.594c0-.329.27-.595.602-.595m22.848-.005c.332 0 .602.266.602.594 0 .329-.27.595-.602.595a.599.599 0 01-.603-.595c0-.328.27-.594.603-.594m-5.25 0c.333 0 .603.266.603.594 0 .329-.27.595-.603.595a.599.599 0 01-.602-.595c0-.328.27-.594.602-.594m-12.348 0c.334 0 .603.266.603.594 0 .329-.27.595-.603.595a.599.599 0 01-.602-.595c0-.328.27-.594.602-.594m-10.5-.052c.332 0 .602.266.602.594 0 .329-.27.595-.602.595a.598.598 0 01-.602-.595c0-.328.269-.594.602-.594m28.093-.718a1.364 1.364 0 100 2.728 1.364 1.364 0 000-2.728m-5.25 0a1.364 1.364 0 100 2.728 1.364 1.364 0 000-2.728m-12.348 0a1.364 1.364 0 100 2.728 1.364 1.364 0 000-2.728m-5.25 0a1.364 1.364 0 100 2.728 1.364 1.364 0 000-2.728m-5.25-.058a1.364 1.364 0 100 2.729 1.364 1.364 0 000-2.729m20.818-.312h.741l-.231.191c-.29.289-.496.66-.581 1.076l-.006.037-.057-.006a.658.658 0 01-.53-.642.66.66 0 01.664-.656m8.558-.009h.741a.66.66 0 01.664.655.658.658 0 01-.53.643l-.057.006-.006-.038a2.123 2.123 0 00-.58-1.075zm-1.278-.004a1.747 1.747 0 110 3.495 1.747 1.747 0 010-3.495m-3.971 0h2.701l-.231.191c-.29.289-.496.66-.581 1.076l-.007.044H27.49l-.007-.044a2.123 2.123 0 00-.58-1.076zm-1.28 0a1.747 1.747 0 11.001 3.495 1.747 1.747 0 010-3.495m-10.973 0h.914c.277 0 .503.239.503.533v.337c0 .295-.226.533-.503.533h-.095l-.006-.044a2.334 2.334 0 00-.581-1.154zm-1.375 0a1.747 1.747 0 110 3.495 1.747 1.747 0 010-3.495m-3.97 0h2.7l-.23.191c-.29.289-.496.66-.58 1.076l-.008.044H9.892l-.007-.044a2.127 2.127 0 00-.58-1.076zm-1.28 0a1.747 1.747 0 110 3.495 1.747 1.747 0 010-3.495m-5.25-.057a1.747 1.747 0 110 3.494 1.747 1.747 0 010-3.494M1.5 1.823L.623 4.416h3.31V1.823zm-.183-.5h3.676c.14 0 .253.112.253.25l-.004.018v4.915h1.283l-.231.191c-.29.289-.496.66-.581 1.076l-.007.04H4.641l-.006-.04a2.13 2.13 0 00-4.172 0l-.006.036-.055-.005A.498.498 0 010 7.317v-2.9h.016l.009-.067.95-2.813a.29.29 0 01.148-.167l.094-.026.001-.001.008-.002.006-.001h.002zM7.389 0h26.165c.954 0 1.727.474 1.727 1.057v4.23c0 .584-.773 1.057-1.727 1.057H7.39c-.954 0-1.727-.473-1.727-1.057v-4.23C5.662.474 6.435 0 7.389 0" fill="#100f0d" fill-rule="evenodd"/></svg>