<svg xmlns="http://www.w3.org/2000/svg" viewBox="0 0 45.173 10" height="10mm" width="170.731"><path d="M42.255 7.68c.329 0 .595.264.595.59a.593.593 0 01-.595.591.593.593 0 01-.595-.59c0-.327.266-.591.595-.591m-12.3 0c.328 0 .595.264.595.59a.593.593 0 01-.595.591.593.593 0 01-.596-.59c0-.327.267-.591.596-.591m-27.436 0c.329 0 .596.264.596.59a.593.593 0 01-.596.591.594.594 0 01-.596-.59c0-.327.267-.591.596-.591m17.492-.034c.33 0 .596.265.596.59a.593.593 0 01-.596.592.593.593 0 01-.595-.591c0-.326.266-.59.595-.59m3.404-.179h3.2v.212h-3.2zM42.25 6.91c-.745 0-1.348.607-1.348 1.355 0 .749.603 1.356 1.348 1.356.744 0 1.347-.607 1.347-1.356 0-.748-.603-1.355-1.347-1.355m-12.303 0c-.745 0-1.35.607-1.35 1.355 0 .749.605 1.356 1.35 1.356.746 0 1.35-.607 1.35-1.356 0-.748-.604-1.355-1.35-1.355m-27.434 0c-.744 0-1.348.607-1.348 1.355 0 .749.604 1.356 1.348 1.356.745 0 1.349-.607 1.349-1.356 0-.748-.604-1.355-1.349-1.355m17.493-.034c-.744 0-1.348.607-1.348 1.355 0 .749.604 1.355 1.348 1.355.745 0 1.348-.606 1.348-1.355 0-.748-.603-1.355-1.348-1.355m23.508-.289h.733c.362 0 .655.292.655.651a.652.652 0 01-.523.638l-.057.005-.006-.036a2.108 2.108 0 00-.573-1.068zm-12.301 0h.903l.084.017V6.59h8.796l-.257.186c-.321.283-.55.645-.644 1.051l-.01.054h-7.888v-.01l-.081.016h-.094l-.006-.041a2.11 2.11 0 00-.574-1.068zm-3.265 0h.733l-.229.19c-.285.286-.49.655-.573 1.068l-.006.036-.057-.005a.652.652 0 01-.524-.638c0-.36.294-.65.656-.65m-6.677-.034h.732c.362 0 .656.29.656.65a.652.652 0 01-.524.638l-.056.006-.006-.037a2.111 2.111 0 00-.574-1.068zM42.25 6.53c.953 0 1.727.777 1.727 1.735 0 .958-.774 1.735-1.727 1.735a1.731 1.731 0 01-1.728-1.735c0-.958.774-1.735 1.728-1.735m-12.303 0c.955 0 1.73.777 1.73 1.735 0 .958-.775 1.735-1.73 1.735a1.732 1.732 0 01-1.729-1.735c0-.958.774-1.735 1.73-1.735m-27.435 0A1.73 1.73 0 014.24 8.265 1.73 1.73 0 012.513 10 1.731 1.731 0 01.786 8.265c0-.958.774-1.735 1.727-1.735m17.493-.033c.954 0 1.727.776 1.727 1.734s-.773 1.735-1.727 1.735a1.73 1.73 0 01-1.727-1.735 1.73 1.73 0 011.727-1.734M1.483 1.936L.616 4.512h3.27V1.936zm-.182-.496h3.633c.139 0 .25.11.25.248l-.003.017v4.882H6.45l-.008.007h10.625v-.002h.894l.049-.008h.618l-.229.19a2.116 2.116 0 00-.362.486l-.208.573v.053H4.586l-.005-.041a2.107 2.107 0 00-2.062-1.687A2.107 2.107 0 00.457 7.845l-.005.036-.055-.006A.494.494 0 010 7.392v-2.88h.016l.008-.067.94-2.793a.29.29 0 01.146-.167l.092-.025.002-.001.007-.002.007-.001h.001zM6.757.139h16.034c.585 0 1.059.47 1.059 1.05v4.2c0 .58-.474 1.05-1.059 1.05H6.757c-.584 0-1.057-.47-1.057-1.05v-4.2C5.7.61 6.173.14 6.757.14M28.081 0h16.033c.585 0 1.059.47 1.059 1.05v4.2c0 .58-.474 1.051-1.059 1.051H28.081c-.585 0-1.059-.47-1.059-1.05v-4.2c0-.58.474-1.051 1.059-1.051" fill="#100f0d" fill-rule="evenodd"/></svg>