<svg xmlns="http://www.w3.org/2000/svg" viewBox="0 0 23.79 10" height="10mm" width="89.914"><path d="M20.048 7.66a.596.596 0 110 1.192.596.596 0 010-1.192m-12.323 0a.596.596 0 110 1.192.596.596 0 010-1.192m-5.202 0a.596.596 0 11.002 1.192.596.596 0 01-.002-1.192m17.52-.776c-.746 0-1.35.612-1.35 1.366 0 .755.604 1.367 1.35 1.367.745 0 1.35-.612 1.35-1.367 0-.754-.605-1.366-1.35-1.366m-12.325 0A1.36 1.36 0 006.365 8.25a1.36 1.36 0 001.353 1.367A1.36 1.36 0 009.07 8.25a1.36 1.36 0 00-1.352-1.366m-5.2 0c-.746 0-1.35.612-1.35 1.366 0 .755.604 1.367 1.35 1.367.746 0 1.35-.612 1.35-1.367 0-.754-.604-1.366-1.35-1.366m18.792-.326h.733a.657.657 0 01.133 1.3l-.057.006-.006-.037a2.131 2.131 0 00-.574-1.078zm-12.324 0h.904l.085.017V6.56h8.812l-.258.188c-.322.285-.55.65-.646 1.06l-.009.054H9.972v-.01l-.082.016h-.094l-.006-.041a2.134 2.134 0 00-.575-1.078zm11.057-.057c.955 0 1.73.783 1.73 1.75A1.74 1.74 0 0120.043 10a1.74 1.74 0 01-1.73-1.75c0-.966.774-1.749 1.73-1.749m-12.325 0a1.74 1.74 0 011.732 1.75C9.45 9.216 8.674 10 7.718 10a1.74 1.74 0 01-1.732-1.75c0-.966.775-1.749 1.732-1.749m-5.2 0c.956 0 1.73.783 1.73 1.75A1.74 1.74 0 012.519 10a1.74 1.74 0 01-1.73-1.75c0-.966.774-1.749 1.73-1.749M1.486 1.867L.617 4.465h3.277V1.867zm-.182-.5h3.64a.25.25 0 01.25.25l-.003.018v4.923h1.27l-.23.191c-.286.29-.49.661-.575 1.078l-.006.04H4.595l-.006-.04a2.115 2.115 0 00-2.066-1.702c-1.018 0-1.868.73-2.065 1.702l-.005.036-.056-.005A.498.498 0 010 7.37V4.465h.016l.008-.067.942-2.817a.29.29 0 01.146-.168l.093-.026h.001l.007-.002.007-.002h.002zM6.666 0H22.73c.586 0 1.06.474 1.06 1.06v4.235a1.06 1.06 0 01-1.06 1.06H6.666a1.06 1.06 0 01-1.06-1.06V1.06C5.606.474 6.081 0 6.666 0" fill="#100f0d" fill-rule="evenodd"/></svg>